<svg width="24" height="25" viewBox="0 0 24 25" fill="none" xmlns="http://www.w3.org/2000/svg">
<path d="M8.10938 18.9863C8.10938 19.0801 8.01562 19.127 7.875 19.127C7.73438 19.1738 7.64062 19.0801 7.64062 18.9863C7.64062 18.8926 7.73438 18.7988 7.875 18.7988C8.01562 18.7988 8.10938 18.8926 8.10938 18.9863ZM6.65625 18.752C6.65625 18.8457 6.75 18.9863 6.89062 18.9863C6.98438 19.0332 7.125 18.9863 7.17188 18.8926C7.17188 18.7988 7.125 18.7051 6.98438 18.6582C6.84375 18.6113 6.70312 18.6582 6.65625 18.752ZM8.76562 18.7051C8.625 18.7051 8.53125 18.7988 8.53125 18.9395C8.53125 19.0332 8.67188 19.0801 8.8125 19.0332C8.95312 18.9863 9.04688 18.9395 9 18.8457C9 18.752 8.85938 18.6582 8.76562 18.7051ZM11.8125 0.705078C5.34375 0.705078 0.375 5.67383 0.375 12.1426C0.375 17.3457 3.60938 21.7988 8.29688 23.3926C8.90625 23.4863 9.09375 23.1113 9.09375 22.8301C9.09375 22.502 9.09375 20.9082 9.09375 19.9238C9.09375 19.9238 5.8125 20.627 5.10938 18.5176C5.10938 18.5176 4.59375 17.1582 3.84375 16.8301C3.84375 16.8301 2.76562 16.0801 3.89062 16.0801C3.89062 16.0801 5.0625 16.1738 5.71875 17.2988C6.75 19.127 8.4375 18.6113 9.14062 18.2832C9.23438 17.5332 9.51562 17.0176 9.89062 16.6895C7.26562 16.4082 4.59375 16.0332 4.59375 11.5332C4.59375 10.2207 4.96875 9.61133 5.71875 8.76758C5.57812 8.43945 5.20312 7.2207 5.85938 5.58008C6.79688 5.29883 9.09375 6.8457 9.09375 6.8457C10.0312 6.56445 11.0156 6.4707 12 6.4707C13.0312 6.4707 14.0156 6.56445 14.9531 6.8457C14.9531 6.8457 17.2031 5.25195 18.1875 5.58008C18.8438 7.2207 18.4219 8.43945 18.3281 8.76758C19.0781 9.61133 19.5469 10.2207 19.5469 11.5332C19.5469 16.0332 16.7812 16.4082 14.1562 16.6895C14.5781 17.0645 14.9531 17.7676 14.9531 18.8926C14.9531 20.4395 14.9062 22.4082 14.9062 22.7832C14.9062 23.1113 15.1406 23.4863 15.75 23.3457C20.4375 21.7988 23.625 17.3457 23.625 12.1426C23.625 5.67383 18.3281 0.705078 11.8125 0.705078ZM4.92188 16.877C4.82812 16.9238 4.875 17.0645 4.92188 17.1582C5.01562 17.2051 5.10938 17.252 5.20312 17.2051C5.25 17.1582 5.25 17.0176 5.15625 16.9238C5.0625 16.877 4.96875 16.8301 4.92188 16.877ZM4.40625 16.502C4.35938 16.5957 4.40625 16.6426 4.5 16.6895C4.59375 16.7363 4.6875 16.7363 4.73438 16.6426C4.73438 16.5957 4.6875 16.5488 4.59375 16.502C4.5 16.4551 4.45312 16.4551 4.40625 16.502ZM5.90625 18.1895C5.85938 18.2363 5.85938 18.377 6 18.4707C6.09375 18.5645 6.23438 18.6113 6.28125 18.5176C6.32812 18.4707 6.32812 18.3301 6.23438 18.2363C6.14062 18.1426 6 18.0957 5.90625 18.1895ZM5.39062 17.4863C5.29688 17.5332 5.29688 17.6738 5.39062 17.7676C5.48438 17.8613 5.57812 17.9082 5.67188 17.8613C5.71875 17.8145 5.71875 17.6738 5.67188 17.5801C5.57812 17.4863 5.48438 17.4395 5.39062 17.4863Z" fill="#222222"/>
</svg>
