<svg width="24" height="25" viewBox="0 0 24 25" fill="none" xmlns="http://www.w3.org/2000/svg">
<path d="M21.5156 7.45508C21.5156 7.68945 21.5156 7.87695 21.5156 8.11133C21.5156 14.627 16.5938 22.0801 7.54688 22.0801C4.73438 22.0801 2.15625 21.2832 0 19.877C0.375 19.9238 0.75 19.9707 1.17188 19.9707C3.46875 19.9707 5.57812 19.1738 7.26562 17.8613C5.10938 17.8145 3.28125 16.4082 2.67188 14.4395C3 14.4863 3.28125 14.5332 3.60938 14.5332C4.03125 14.5332 4.5 14.4395 4.875 14.3457C2.625 13.877 0.9375 11.9082 0.9375 9.51758V9.4707C1.59375 9.8457 2.39062 10.0332 3.1875 10.0801C1.82812 9.18945 0.984375 7.68945 0.984375 6.00195C0.984375 5.06445 1.21875 4.2207 1.64062 3.51758C4.07812 6.4707 7.73438 8.43945 11.8125 8.67383C11.7188 8.29883 11.6719 7.92383 11.6719 7.54883C11.6719 4.83008 13.875 2.62695 16.5938 2.62695C18 2.62695 19.2656 3.18945 20.2031 4.17383C21.2812 3.93945 22.3594 3.51758 23.2969 2.95508C22.9219 4.12695 22.1719 5.06445 21.1406 5.67383C22.125 5.58008 23.1094 5.29883 23.9531 4.92383C23.2969 5.9082 22.4531 6.75195 21.5156 7.45508Z" fill="#222222"/>
</svg>
